<svg xmlns="http://www.w3.org/2000/svg" viewBox="0 0 120 120" width="120" height="120">
    <!-- DanClaw Crab Icon — flat minimal blue -->
    <!-- Body -->
    <ellipse cx="60" cy="65" rx="28" ry="22" fill="#4a9eff"/>
    <!-- Head -->
    <ellipse cx="60" cy="44" rx="18" ry="14" fill="#4a9eff"/>
    <!-- Eyes -->
    <circle cx="53" cy="39" r="4" fill="#0a0a0a"/>
    <circle cx="67" cy="39" r="4" fill="#0a0a0a"/>
    <circle cx="54" cy="38" r="1.5" fill="#fff"/>
    <circle cx="68" cy="38" r="1.5" fill="#fff"/>
    <!-- Left big claw -->
    <path d="M32 55 Q14 45 10 32 Q8 24 16 22 Q24 20 26 30 Q28 36 34 42 Z" fill="#4a9eff"/>
    <path d="M10 32 Q6 22 12 18 Q18 14 20 22" fill="none" stroke="#4a9eff" stroke-width="5" stroke-linecap="round"/>
    <!-- Right big claw -->
    <path d="M88 55 Q106 45 110 32 Q112 24 104 22 Q96 20 94 30 Q92 36 86 42 Z" fill="#4a9eff"/>
    <path d="M110 32 Q114 22 108 18 Q102 14 100 22" fill="none" stroke="#4a9eff" stroke-width="5" stroke-linecap="round"/>
    <!-- Left legs -->
    <line x1="36" y1="62" x2="20" y2="72" stroke="#4a9eff" stroke-width="4" stroke-linecap="round"/>
    <line x1="34" y1="70" x2="16" y2="78" stroke="#4a9eff" stroke-width="4" stroke-linecap="round"/>
    <line x1="36" y1="78" x2="20" y2="88" stroke="#4a9eff" stroke-width="4" stroke-linecap="round"/>
    <!-- Right legs -->
    <line x1="84" y1="62" x2="100" y2="72" stroke="#4a9eff" stroke-width="4" stroke-linecap="round"/>
    <line x1="86" y1="70" x2="104" y2="78" stroke="#4a9eff" stroke-width="4" stroke-linecap="round"/>
    <line x1="84" y1="78" x2="100" y2="88" stroke="#4a9eff" stroke-width="4" stroke-linecap="round"/>
    <!-- Mouth smile -->
    <path d="M53 52 Q60 58 67 52" fill="none" stroke="#0a0a0a" stroke-width="2" stroke-linecap="round"/>
    <!-- Antennae -->
    <line x1="54" y1="31" x2="46" y2="20" stroke="#4a9eff" stroke-width="2.5" stroke-linecap="round"/>
    <line x1="66" y1="31" x2="74" y2="20" stroke="#4a9eff" stroke-width="2.5" stroke-linecap="round"/>
    <circle cx="46" cy="19" r="2" fill="#4a9eff"/>
    <circle cx="74" cy="19" r="2" fill="#4a9eff"/>
</svg>
